name C:\Users\antoi\Documents\MyRepositories\upper-imu-dc\Results\main_tracking\Case_101\kinematics.mot
datacolumns 43
datarows 8
range 4.84000000 4.98000000
endheader 
time	clav_prot	clav_elev	scapula_abduction	scapula_elevation	scapula_upward_rot	scapula_winging	plane_elv	shoulder_elv	axial_rot	TrapeziusScapula_M/activation	TrapeziusScapula_S/activation	TrapeziusScapula_I/activation	TrapeziusClavicle_S/activation	SerratusAnterior_I/activation	SerratusAnterior_M/activation	SerratusAnterior_S/activation	Rhomboideus_S/activation	Rhomboideus_I/activation	LevatorScapulae/activation	Coracobrachialis/activation	DeltoideusClavicle_A/activation	DeltoideusScapula_P/activation	DeltoideusScapula_M/activation	LatissimusDorsi_S/activation	LatissimusDorsi_M/activation	LatissimusDorsi_I/activation	PectoralisMajorClavicle_S/activation	PectoralisMajorThorax_I/activation	PectoralisMajorThorax_M/activation	TeresMajor/activation	Infraspinatus_I/activation	Infraspinatus_S/activation	PectoralisMinor/activation	TeresMinor/activation	Subscapularis_S/activation	Subscapularis_M/activation	Subscapularis_I/activation	Supraspinatus_P/activation	Supraspinatus_A/activation	TRIlong/activation	BIC_long/activation	BIC_brevis/activation	
          4.84000000	        -21.48231378	         -4.36761605	         -0.70011504	         -7.48603325	         28.24171673	          1.76906986	         66.25428212	         63.97493004	        -11.74476390	          0.17812628	          0.21116303	          0.13566193	          0.22140445	          0.20036308	          0.28739342	          0.21234028	          0.21405619	          0.22253260	          0.24653316	          0.21344869	          0.23068477	          0.18492895	          0.18135877	          0.16211028	          0.14232533	          0.17024256	          0.21697615	          0.14928728	          0.18114077	          0.16955909	          0.29164431	          0.20640542	          0.16459456	          0.25971316	          0.17205437	          0.18256527	          0.15935234	          0.18628801	          0.18056003	          0.18485162	          0.16550551	          0.22935896	
          4.86000000	        -21.34363814	         -4.51767575	         -1.05920592	         -7.41725272	         27.34267937	          2.00984375	         65.86800463	         62.72211731	        -11.56358337	          0.18004801	          0.21429522	          0.13748997	          0.22153845	          0.20164082	          0.28563989	          0.21093096	          0.21403272	          0.22259373	          0.24563680	          0.21395770	          0.23219225	          0.18236392	          0.18231343	          0.16280270	          0.14276451	          0.17156153	          0.21769636	          0.14867821	          0.18117159	          0.16899857	          0.28940455	          0.20723429	          0.16356980	          0.25736501	          0.17269131	          0.18316730	          0.16015415	          0.18713155	          0.18102819	          0.18230699	          0.16665996	          0.23118387	
          4.88000000	        -21.23980664	         -4.65698316	         -1.43286491	         -7.35081544	         26.50502589	          2.23790024	         65.45731139	         61.46853959	        -11.38617392	          0.18175111	          0.21705633	          0.13923189	          0.22162363	          0.20288389	          0.28392470	          0.20965434	          0.21397770	          0.22257771	          0.24475330	          0.21451649	          0.23369871	          0.17991883	          0.18299772	          0.16344827	          0.14319735	          0.17291379	          0.21841630	          0.14815916	          0.18129230	          0.16841166	          0.28737802	          0.20799635	          0.16266160	          0.25524806	          0.17324883	          0.18370233	          0.16086639	          0.18792046	          0.18146091	          0.17987261	          0.16772635	          0.23294388	
          4.90000000	        -21.16865894	         -4.78572010	         -1.81942190	         -7.28714302	         25.72708267	          2.45324456	         65.02645600	         60.21784863	        -11.22473458	          0.18323541	          0.21939221	          0.14087327	          0.22164282	          0.20406087	          0.28223634	          0.20851474	          0.21388727	          0.22248636	          0.24387739	          0.21510457	          0.23520573	          0.17760336	          0.18345674	          0.16406147	          0.14364016	          0.17429335	          0.21912423	          0.14775792	          0.18150961	          0.16779668	          0.28561889	          0.20871335	          0.16189897	          0.25337491	          0.17371663	          0.18416204	          0.16147458	          0.18864844	          0.18184286	          0.17754807	          0.16869744	          0.23461578	
          4.92000000	        -21.12740446	         -4.90424756	         -2.21674002	         -7.22645060	         25.00609641	          2.65610792	         64.57970177	         58.97343688	        -11.08981228	          0.18448255	          0.22126310	          0.14236279	          0.22158892	          0.20512677	          0.28060407	          0.20752174	          0.21376905	          0.22234930	          0.24303212	          0.21572812	          0.23673730	          0.17538114	          0.18365488	          0.16463584	          0.14408969	          0.17568533	          0.21984131	          0.14750953	          0.18185551	          0.16715278	          0.28414478	          0.20938597	          0.16130134	          0.25173105	          0.17409668	          0.18454716	          0.16197658	          0.18932049	          0.18217320	          0.17532549	          0.16956979	          0.23624618	
          4.94000000	        -21.11277173	         -5.01289173	         -2.62224836	         -7.16865989	         24.33859471	          2.84680769	         64.12146321	         57.73806223	        -10.98956614	          0.18548357	          0.22274679	          0.14366686	          0.22148460	          0.20609128	          0.27905688	          0.20667449	          0.21363288	          0.22218762	          0.24224163	          0.21638379	          0.23829013	          0.17326018	          0.18366974	          0.16515572	          0.14454021	          0.17706455	          0.22056909	          0.14742703	          0.18232286	          0.16647383	          0.28292730	          0.21002341	          0.16087180	          0.25029114	          0.17438007	          0.18485060	          0.16235618	          0.18993978	          0.18244767	          0.17318736	          0.17034182	          0.23784999	
          4.96000000	        -21.12128295	         -5.11249188	         -3.03315512	         -7.11386268	         23.72057668	          3.02597356	         63.65589475	         56.51385261	        -10.92936122	          0.18623866	          0.22371366	          0.14486540	          0.22128134	          0.20700817	          0.27751664	          0.20596789	          0.21342258	          0.22190787	          0.24140870	          0.21705155	          0.23991060	          0.17125388	          0.18352159	          0.16566544	          0.14503843	          0.17844608	          0.22131547	          0.14755364	          0.18296775	          0.16576971	          0.28193730	          0.21062188	          0.16066338	          0.24904991	          0.17456848	          0.18507235	          0.16261981	          0.19050482	          0.18266409	          0.17114642	          0.17101352	          0.23941564	
          4.98000000	        -21.14930857	         -5.20449285	         -3.44625680	         -7.06248141	         23.14790036	          3.19451827	         63.18641177	         55.30211604	        -10.91223322	          0.18676140	          0.22419410	          0.14596958	          0.22099130	          0.20795243	          0.27603994	          0.20539177	          0.21312665	          0.22146874	          0.24050517	          0.21771839	          0.24161148	          0.16931627	          0.18325782	          0.16615781	          0.14556081	          0.17980301	          0.22208412	          0.14788588	          0.18378987	          0.16501717	          0.28119330	          0.21120397	          0.16066987	          0.24799234	          0.17466533	          0.18521681	          0.16276654	          0.19102507	          0.18282376	          0.16915528	          0.17159161	          0.24094714	
